<svg width="70" height="74" viewBox="0 0 70 74" fill="none" xmlns="http://www.w3.org/2000/svg">
<mask id="path-1-inside-1_755_128" fill="white">
<path d="M69.8535 21.4513C69.4792 21.0081 60.5772 10.6064 50.6408 10.2423C45.3925 10.0531 41.8422 11.1662 39.6922 12.2262C39.106 10.631 36.8636 6.05155 29.5157 2.12517C26.8755 0.715301 23.6368 0 19.8847 0C13.448 0 7.79084 2.07463 7.55194 2.16145C7.33028 2.24439 7.17635 2.46079 7.16527 2.7083C7.15296 2.9558 7.28595 3.18646 7.49776 3.29142C7.84871 3.46506 16.1251 7.53658 19.8342 7.53658C20.0546 7.53658 20.259 7.52233 20.445 7.49511C21.5902 7.32147 22.6739 7.08045 23.6048 6.83553L22.3364 7.8735C22.1776 8.00308 22.0951 8.21042 22.1148 8.41905C22.1357 8.62897 22.2576 8.81298 22.4387 8.90628L25.2956 10.3745C24.3966 10.2889 23.4731 10.2384 22.5298 10.2216L22.2576 10.219C11.0935 10.219 0.609154 21.2932 0.168304 21.7649C0.00206093 21.9411 -0.0459647 22.2054 0.0463923 22.4348C0.139981 22.6616 0.330852 22.8249 0.589451 22.8041C1.07833 22.7963 12.5799 22.5929 15.7631 20.3174C16.976 19.4505 18.0732 18.533 18.9648 17.7335L17.992 19.8159C17.9033 20.0051 17.9144 20.228 18.0203 20.4081C18.1274 20.5882 18.3134 20.6971 18.5141 20.6971H24.4373C24.6392 20.6971 24.8264 20.5869 24.9311 20.4055L25.6724 19.1395L25.5997 19.8367C25.5689 20.1386 25.7537 20.4198 26.0332 20.4949C26.1145 20.517 28.0318 21.0249 30.6461 21.0249C30.6646 21.0249 30.6831 21.0249 30.7028 21.0236C26.6846 23.3769 23.1566 26.772 20.0682 30.6919C20.0632 30.6945 20.0472 30.7022 20.0448 30.7035L20.0497 30.7139C15.4257 36.5892 11.7954 43.658 9.06044 50.2836C9.04566 50.2953 9.02719 50.3095 9.02473 50.3108L9.04073 50.3329C4.49184 61.363 2.39842 71.122 2.22355 71.9526C2.16814 72.2182 2.28882 72.4942 2.51787 72.6238C4.14335 73.5348 5.94739 74 7.88073 74C11.1465 74 13.629 72.6847 13.7349 72.629C13.9246 72.5266 14.0465 72.3232 14.0514 72.0977C14.5858 44.8424 32.9218 23.2939 35.1876 20.736C37.0224 25.6627 41.011 28.8362 41.1884 28.9749C41.4199 29.1563 41.7437 29.1317 41.9482 28.9153L42.4173 28.419L41.9482 29.8211C41.8792 30.0206 41.9174 30.2435 42.043 30.4094L45.7631 35.2519C45.8899 35.4165 46.0845 35.4994 46.2865 35.4748C46.4847 35.4476 46.6584 35.3167 46.7421 35.1236L47.6731 33.0179C47.641 34.2502 47.6509 35.7249 47.774 37.2643C48.0917 41.297 55.1712 50.8421 55.4717 51.2451C55.617 51.4382 55.8571 51.5237 56.0874 51.4563C56.314 51.3877 56.4778 51.1829 56.5073 50.938C56.58 50.2707 58.1993 34.4835 50.9856 25.3828C49.0954 22.9998 47.1091 21.0288 45.0575 19.4984C46.2963 19.4285 47.1017 19.2587 47.1448 19.2496C47.4268 19.1887 47.6263 18.9179 47.609 18.616L47.5918 18.3257L48.04 19.1861C48.1361 19.3727 48.3183 19.4933 48.5203 19.5036L53.7206 19.7809C53.7317 19.7809 53.7415 19.7809 53.7514 19.7809C53.7563 19.7822 53.7588 19.7822 53.7612 19.7809C54.0839 19.7809 54.3437 19.5075 54.3437 19.1693C54.3437 19.041 54.3068 18.9231 54.2427 18.8246L53.6516 17.372C54.3548 18.0601 55.1958 18.8246 56.1169 19.5593C58.8347 21.7195 68.9533 22.4387 69.3806 22.4672C69.6232 22.4724 69.8375 22.348 69.9409 22.1251C70.0444 21.9035 70.0099 21.6379 69.8535 21.4513ZM15.305 40.1852C16.9514 37.2358 18.7838 34.3824 20.8046 31.7661C21.1654 31.6184 22.0089 31.3527 22.7933 31.7104C23.5038 32.0344 24.0334 32.8235 24.3843 34.0235C22.9817 36.4441 21.5656 39.1239 20.2282 42.0227C18.8453 40.3912 16.8615 40.053 15.305 40.1852ZM14.5218 41.6222C15.4934 41.3942 18.1607 41.0339 19.6384 43.3366C18.6385 45.5953 17.6952 47.9796 16.8455 50.4741C14.5083 48.6586 12.2868 48.8634 10.8128 49.3791C11.9173 46.8082 13.15 44.1932 14.5218 41.6222ZM6.3279 61.4356C7.36107 60.9354 11.1317 59.3713 13.9935 61.3721C13.6992 62.9802 13.4579 64.6156 13.2756 66.2781C9.76851 64.9719 6.54586 65.647 4.89945 66.1848C5.29473 64.7801 5.7713 63.1785 6.3279 61.4356ZM6.85741 59.8106C7.74774 57.1321 8.82277 54.1776 10.0776 51.1259C10.9359 50.5752 13.5551 49.2988 16.4133 51.7635C15.5636 54.4018 14.8284 57.1567 14.2509 60.0089C11.612 58.4474 8.58141 59.1627 6.85741 59.8106ZM7.88442 72.7728C6.30081 72.7728 4.81571 72.4282 3.46483 71.753C3.61999 71.0701 3.9574 69.6473 4.4783 67.7126C5.37108 67.3394 9.12447 65.9917 13.1426 67.6141C13.0232 68.9566 12.937 70.3121 12.9013 71.6856C12.1723 72.0122 10.2303 72.7728 7.88442 72.7728ZM25.2007 32.6395C24.7365 31.6093 24.0974 30.8927 23.2822 30.5221C22.8512 30.3264 22.4226 30.2526 22.0212 30.2435C25.335 26.2705 29.1278 22.9713 33.4353 20.9576C31.7901 22.9246 28.5933 26.9961 25.2007 32.6395ZM56.8176 18.5836C54.2883 16.5724 52.3562 14.2542 52.3365 14.2322C52.1493 14.0054 51.8316 13.9549 51.589 14.1155C51.3489 14.2762 51.2528 14.5989 51.3649 14.8749L52.8487 18.5097L48.9057 18.2998L47.3763 15.3608C47.2457 15.1107 46.9687 14.9876 46.7064 15.0667C46.4453 15.1457 46.2705 15.4049 46.2865 15.6874L46.417 18.1339C45.7767 18.2272 44.5748 18.3555 43.134 18.2829C42.8631 18.2635 42.6267 18.4501 42.5479 18.7196C42.4715 18.9879 42.5799 19.2782 42.8102 19.4207C45.3321 20.9861 47.7827 23.2538 50.0903 26.1655C55.6946 33.2343 55.6761 44.9836 55.4618 49.2184C53.1197 45.9141 49.1409 39.812 48.9316 37.1607C48.6311 33.3743 49.035 29.8859 49.0375 29.8509C49.072 29.5528 48.8959 29.2703 48.6213 29.1874C48.5683 29.1706 48.5129 29.1628 48.4624 29.1628C48.2395 29.1628 48.0314 29.2976 47.9329 29.5165L46.0796 33.7151L43.1488 29.9001L44.3679 26.2653C44.459 25.9945 44.3605 25.6951 44.1315 25.5422C43.9012 25.3919 43.6007 25.4269 43.4111 25.6277L41.4888 27.6544C40.3953 26.6838 37.2921 23.6594 36.0102 19.5347C35.9154 19.2224 35.6014 19.0436 35.296 19.1382C34.9426 19.2458 34.5534 19.3429 34.0781 19.444C34.0005 19.4622 33.9279 19.4959 33.8651 19.5399C33.7924 19.5231 33.721 19.5218 33.6471 19.536C32.6952 19.7071 31.6842 19.7939 30.6424 19.7939C28.9307 19.7939 27.5171 19.5581 26.8078 19.4129L27.0984 16.5711C27.1279 16.2861 26.9666 16.0178 26.7092 15.9258C26.4519 15.8351 26.1699 15.9414 26.0258 16.185L24.1072 19.466H19.4463L21.3858 15.309C21.5126 15.0395 21.4326 14.7129 21.1986 14.5406C20.9659 14.3669 20.6457 14.4006 20.4462 14.6157C20.4228 14.6416 18.0979 17.1646 15.1117 19.2989C13.0195 20.793 6.0065 21.3722 2.09302 21.5303C5.05953 18.7209 13.5909 11.4358 22.2564 11.4358L22.5088 11.4383C24.8436 11.4772 27.0454 11.739 29.0539 12.2184C29.3199 12.2819 29.5932 12.1394 29.7078 11.8776C29.8137 11.6379 29.7607 11.3593 29.5822 11.1792L30.8247 9.10325C30.9687 8.86222 30.9355 8.54604 30.7434 8.34389C30.5501 8.14303 30.2508 8.10804 30.0218 8.25966L27.3323 10.0531L23.7846 8.22985L26.7536 5.80275C26.9802 5.61745 27.0442 5.28831 26.905 5.02266C26.7671 4.75961 26.4654 4.64039 26.1982 4.74406C26.1711 4.75572 23.4139 5.80146 20.2775 6.27573C20.1408 6.29776 19.9918 6.30424 19.8317 6.30424C17.242 6.30424 11.9198 4.00413 9.388 2.83658C11.4691 2.21977 15.5316 1.2129 19.881 1.2129C23.4497 1.2129 26.5122 1.88415 28.9862 3.2059C37.3438 7.67135 38.7317 13.0348 38.7427 13.0866C38.7514 13.119 38.776 13.1955 38.7908 13.2279L38.8216 13.3082C38.8844 13.465 39.0063 13.5881 39.159 13.6464C39.3104 13.7048 39.4804 13.6918 39.6257 13.6128C41.5615 12.5424 45.0908 11.2504 50.594 11.4526C58.1266 11.7299 65.2948 18.3853 67.9202 21.1079C64.4734 20.7839 58.5466 19.9585 56.8176 18.5836Z"/>
<path d="M15.305 40.1852C16.9514 37.2358 18.7838 34.3824 20.8046 31.7661C21.1654 31.6184 22.0089 31.3527 22.7933 31.7104C23.5038 32.0344 24.0334 32.8235 24.3843 34.0235C22.9817 36.4441 21.5656 39.1239 20.2282 42.0227C18.8453 40.3912 16.8615 40.053 15.305 40.1852Z"/>
<path d="M25.2007 32.6395C24.7365 31.6093 24.0974 30.8927 23.2822 30.5221C22.8512 30.3264 22.4226 30.2526 22.0212 30.2435C25.335 26.2705 29.1278 22.9713 33.4353 20.9576C31.7901 22.9246 28.5933 26.9961 25.2007 32.6395Z"/>
<path d="M14.5218 41.6222C15.4934 41.3942 18.1607 41.0339 19.6384 43.3366C18.6385 45.5953 17.6952 47.9796 16.8455 50.4741C14.5083 48.6586 12.2868 48.8634 10.8128 49.3791C11.9173 46.8082 13.15 44.1932 14.5218 41.6222Z"/>
<path d="M6.85741 59.8106C7.74774 57.1321 8.82277 54.1776 10.0776 51.1259C10.9359 50.5752 13.5551 49.2988 16.4133 51.7635C15.5636 54.4018 14.8284 57.1567 14.2509 60.0089C11.612 58.4474 8.58141 59.1627 6.85741 59.8106Z"/>
<path d="M6.3279 61.4356C7.36107 60.9354 11.1317 59.3713 13.9935 61.3721C13.6992 62.9802 13.4579 64.6156 13.2756 66.2781C9.76851 64.9719 6.54586 65.647 4.89945 66.1848C5.29473 64.7801 5.7713 63.1785 6.3279 61.4356Z"/>
<path d="M7.88442 72.7728C6.30081 72.7728 4.81571 72.4282 3.46483 71.753C3.61999 71.0701 3.9574 69.6473 4.4783 67.7126C5.37108 67.3394 9.12447 65.9917 13.1426 67.6141C13.0232 68.9566 12.937 70.3121 12.9013 71.6856C12.1723 72.0122 10.2303 72.7728 7.88442 72.7728Z"/>
<path d="M56.8176 18.5836C54.2883 16.5724 52.3562 14.2542 52.3365 14.2322C52.1493 14.0054 51.8316 13.9549 51.589 14.1155C51.3489 14.2762 51.2528 14.5989 51.3649 14.8749L52.8487 18.5097L48.9057 18.2998L47.3763 15.3608C47.2457 15.1107 46.9687 14.9876 46.7064 15.0667C46.4453 15.1457 46.2705 15.4049 46.2865 15.6874L46.417 18.1339C45.7767 18.2272 44.5748 18.3555 43.134 18.2829C42.8631 18.2635 42.6267 18.4501 42.5479 18.7196C42.4715 18.9879 42.5799 19.2782 42.8102 19.4207C45.3321 20.9861 47.7827 23.2538 50.0903 26.1655C55.6946 33.2343 55.6761 44.9836 55.4618 49.2184C53.1197 45.9141 49.1409 39.812 48.9316 37.1607C48.6311 33.3743 49.035 29.8859 49.0375 29.8509C49.072 29.5528 48.8959 29.2703 48.6213 29.1874C48.5683 29.1706 48.5129 29.1628 48.4624 29.1628C48.2395 29.1628 48.0314 29.2976 47.9329 29.5165L46.0796 33.7151L43.1488 29.9001L44.3679 26.2653C44.459 25.9945 44.3605 25.6951 44.1315 25.5422C43.9012 25.3919 43.6007 25.4269 43.4111 25.6277L41.4888 27.6544C40.3953 26.6838 37.2921 23.6594 36.0102 19.5347C35.9154 19.2224 35.6014 19.0436 35.296 19.1382C34.9426 19.2458 34.5534 19.3429 34.0781 19.444C34.0005 19.4622 33.9279 19.4959 33.8651 19.5399C33.7924 19.5231 33.721 19.5218 33.6471 19.536C32.6952 19.7071 31.6842 19.7939 30.6424 19.7939C28.9307 19.7939 27.5171 19.5581 26.8078 19.4129L27.0984 16.5711C27.1279 16.2861 26.9666 16.0178 26.7092 15.9258C26.4519 15.8351 26.1699 15.9414 26.0258 16.185L24.1072 19.466H19.4463L21.3858 15.309C21.5126 15.0395 21.4326 14.7129 21.1986 14.5406C20.9659 14.3669 20.6457 14.4006 20.4462 14.6157C20.4228 14.6416 18.0979 17.1646 15.1117 19.2989C13.0195 20.793 6.0065 21.3722 2.09302 21.5303C5.05953 18.7209 13.5909 11.4358 22.2564 11.4358L22.5088 11.4383C24.8436 11.4772 27.0454 11.739 29.0539 12.2184C29.3199 12.2819 29.5932 12.1394 29.7078 11.8776C29.8137 11.6379 29.7607 11.3593 29.5822 11.1792L30.8247 9.10325C30.9687 8.86222 30.9355 8.54604 30.7434 8.34389C30.5501 8.14303 30.2508 8.10804 30.0218 8.25966L27.3323 10.0531L23.7846 8.22985L26.7536 5.80275C26.9802 5.61745 27.0442 5.28831 26.905 5.02266C26.7671 4.75961 26.4654 4.64039 26.1982 4.74406C26.1711 4.75572 23.4139 5.80146 20.2775 6.27573C20.1408 6.29776 19.9918 6.30424 19.8317 6.30424C17.242 6.30424 11.9198 4.00413 9.388 2.83658C11.4691 2.21977 15.5316 1.2129 19.881 1.2129C23.4497 1.2129 26.5122 1.88415 28.9862 3.2059C37.3438 7.67135 38.7317 13.0348 38.7427 13.0866C38.7514 13.119 38.776 13.1955 38.7908 13.2279L38.8216 13.3082C38.8844 13.465 39.0063 13.5881 39.159 13.6464C39.3104 13.7048 39.4804 13.6918 39.6257 13.6128C41.5615 12.5424 45.0908 11.2504 50.594 11.4526C58.1266 11.7299 65.2948 18.3853 67.9202 21.1079C64.4734 20.7839 58.5466 19.9585 56.8176 18.5836Z"/>
</mask>
<path d="M69.8535 21.4513C69.4792 21.0081 60.5772 10.6064 50.6408 10.2423C45.3925 10.0531 41.8422 11.1662 39.6922 12.2262C39.106 10.631 36.8636 6.05155 29.5157 2.12517C26.8755 0.715301 23.6368 0 19.8847 0C13.448 0 7.79084 2.07463 7.55194 2.16145C7.33028 2.24439 7.17635 2.46079 7.16527 2.7083C7.15296 2.9558 7.28595 3.18646 7.49776 3.29142C7.84871 3.46506 16.1251 7.53658 19.8342 7.53658C20.0546 7.53658 20.259 7.52233 20.445 7.49511C21.5902 7.32147 22.6739 7.08045 23.6048 6.83553L22.3364 7.8735C22.1776 8.00308 22.0951 8.21042 22.1148 8.41905C22.1357 8.62897 22.2576 8.81298 22.4387 8.90628L25.2956 10.3745C24.3966 10.2889 23.4731 10.2384 22.5298 10.2216L22.2576 10.219C11.0935 10.219 0.609154 21.2932 0.168304 21.7649C0.00206093 21.9411 -0.0459647 22.2054 0.0463923 22.4348C0.139981 22.6616 0.330852 22.8249 0.589451 22.8041C1.07833 22.7963 12.5799 22.5929 15.7631 20.3174C16.976 19.4505 18.0732 18.533 18.9648 17.7335L17.992 19.8159C17.9033 20.0051 17.9144 20.228 18.0203 20.4081C18.1274 20.5882 18.3134 20.6971 18.5141 20.6971H24.4373C24.6392 20.6971 24.8264 20.5869 24.9311 20.4055L25.6724 19.1395L25.5997 19.8367C25.5689 20.1386 25.7537 20.4198 26.0332 20.4949C26.1145 20.517 28.0318 21.0249 30.6461 21.0249C30.6646 21.0249 30.6831 21.0249 30.7028 21.0236C26.6846 23.3769 23.1566 26.772 20.0682 30.6919C20.0632 30.6945 20.0472 30.7022 20.0448 30.7035L20.0497 30.7139C15.4257 36.5892 11.7954 43.658 9.06044 50.2836C9.04566 50.2953 9.02719 50.3095 9.02473 50.3108L9.04073 50.3329C4.49184 61.363 2.39842 71.122 2.22355 71.9526C2.16814 72.2182 2.28882 72.4942 2.51787 72.6238C4.14335 73.5348 5.94739 74 7.88073 74C11.1465 74 13.629 72.6847 13.7349 72.629C13.9246 72.5266 14.0465 72.3232 14.0514 72.0977C14.5858 44.8424 32.9218 23.2939 35.1876 20.736C37.0224 25.6627 41.011 28.8362 41.1884 28.9749C41.4199 29.1563 41.7437 29.1317 41.9482 28.9153L42.4173 28.419L41.9482 29.8211C41.8792 30.0206 41.9174 30.2435 42.043 30.4094L45.7631 35.2519C45.8899 35.4165 46.0845 35.4994 46.2865 35.4748C46.4847 35.4476 46.6584 35.3167 46.7421 35.1236L47.6731 33.0179C47.641 34.2502 47.6509 35.7249 47.774 37.2643C48.0917 41.297 55.1712 50.8421 55.4717 51.2451C55.617 51.4382 55.8571 51.5237 56.0874 51.4563C56.314 51.3877 56.4778 51.1829 56.5073 50.938C56.58 50.2707 58.1993 34.4835 50.9856 25.3828C49.0954 22.9998 47.1091 21.0288 45.0575 19.4984C46.2963 19.4285 47.1017 19.2587 47.1448 19.2496C47.4268 19.1887 47.6263 18.9179 47.609 18.616L47.5918 18.3257L48.04 19.1861C48.1361 19.3727 48.3183 19.4933 48.5203 19.5036L53.7206 19.7809C53.7317 19.7809 53.7415 19.7809 53.7514 19.7809C53.7563 19.7822 53.7588 19.7822 53.7612 19.7809C54.0839 19.7809 54.3437 19.5075 54.3437 19.1693C54.3437 19.041 54.3068 18.9231 54.2427 18.8246L53.6516 17.372C54.3548 18.0601 55.1958 18.8246 56.1169 19.5593C58.8347 21.7195 68.9533 22.4387 69.3806 22.4672C69.6232 22.4724 69.8375 22.348 69.9409 22.1251C70.0444 21.9035 70.0099 21.6379 69.8535 21.4513ZM15.305 40.1852C16.9514 37.2358 18.7838 34.3824 20.8046 31.7661C21.1654 31.6184 22.0089 31.3527 22.7933 31.7104C23.5038 32.0344 24.0334 32.8235 24.3843 34.0235C22.9817 36.4441 21.5656 39.1239 20.2282 42.0227C18.8453 40.3912 16.8615 40.053 15.305 40.1852ZM14.5218 41.6222C15.4934 41.3942 18.1607 41.0339 19.6384 43.3366C18.6385 45.5953 17.6952 47.9796 16.8455 50.4741C14.5083 48.6586 12.2868 48.8634 10.8128 49.3791C11.9173 46.8082 13.15 44.1932 14.5218 41.6222ZM6.3279 61.4356C7.36107 60.9354 11.1317 59.3713 13.9935 61.3721C13.6992 62.9802 13.4579 64.6156 13.2756 66.2781C9.76851 64.9719 6.54586 65.647 4.89945 66.1848C5.29473 64.7801 5.7713 63.1785 6.3279 61.4356ZM6.85741 59.8106C7.74774 57.1321 8.82277 54.1776 10.0776 51.1259C10.9359 50.5752 13.5551 49.2988 16.4133 51.7635C15.5636 54.4018 14.8284 57.1567 14.2509 60.0089C11.612 58.4474 8.58141 59.1627 6.85741 59.8106ZM7.88442 72.7728C6.30081 72.7728 4.81571 72.4282 3.46483 71.753C3.61999 71.0701 3.9574 69.6473 4.4783 67.7126C5.37108 67.3394 9.12447 65.9917 13.1426 67.6141C13.0232 68.9566 12.937 70.3121 12.9013 71.6856C12.1723 72.0122 10.2303 72.7728 7.88442 72.7728ZM25.2007 32.6395C24.7365 31.6093 24.0974 30.8927 23.2822 30.5221C22.8512 30.3264 22.4226 30.2526 22.0212 30.2435C25.335 26.2705 29.1278 22.9713 33.4353 20.9576C31.7901 22.9246 28.5933 26.9961 25.2007 32.6395ZM56.8176 18.5836C54.2883 16.5724 52.3562 14.2542 52.3365 14.2322C52.1493 14.0054 51.8316 13.9549 51.589 14.1155C51.3489 14.2762 51.2528 14.5989 51.3649 14.8749L52.8487 18.5097L48.9057 18.2998L47.3763 15.3608C47.2457 15.1107 46.9687 14.9876 46.7064 15.0667C46.4453 15.1457 46.2705 15.4049 46.2865 15.6874L46.417 18.1339C45.7767 18.2272 44.5748 18.3555 43.134 18.2829C42.8631 18.2635 42.6267 18.4501 42.5479 18.7196C42.4715 18.9879 42.5799 19.2782 42.8102 19.4207C45.3321 20.9861 47.7827 23.2538 50.0903 26.1655C55.6946 33.2343 55.6761 44.9836 55.4618 49.2184C53.1197 45.9141 49.1409 39.812 48.9316 37.1607C48.6311 33.3743 49.035 29.8859 49.0375 29.8509C49.072 29.5528 48.8959 29.2703 48.6213 29.1874C48.5683 29.1706 48.5129 29.1628 48.4624 29.1628C48.2395 29.1628 48.0314 29.2976 47.9329 29.5165L46.0796 33.7151L43.1488 29.9001L44.3679 26.2653C44.459 25.9945 44.3605 25.6951 44.1315 25.5422C43.9012 25.3919 43.6007 25.4269 43.4111 25.6277L41.4888 27.6544C40.3953 26.6838 37.2921 23.6594 36.0102 19.5347C35.9154 19.2224 35.6014 19.0436 35.296 19.1382C34.9426 19.2458 34.5534 19.3429 34.0781 19.444C34.0005 19.4622 33.9279 19.4959 33.8651 19.5399C33.7924 19.5231 33.721 19.5218 33.6471 19.536C32.6952 19.7071 31.6842 19.7939 30.6424 19.7939C28.9307 19.7939 27.5171 19.5581 26.8078 19.4129L27.0984 16.5711C27.1279 16.2861 26.9666 16.0178 26.7092 15.9258C26.4519 15.8351 26.1699 15.9414 26.0258 16.185L24.1072 19.466H19.4463L21.3858 15.309C21.5126 15.0395 21.4326 14.7129 21.1986 14.5406C20.9659 14.3669 20.6457 14.4006 20.4462 14.6157C20.4228 14.6416 18.0979 17.1646 15.1117 19.2989C13.0195 20.793 6.0065 21.3722 2.09302 21.5303C5.05953 18.7209 13.5909 11.4358 22.2564 11.4358L22.5088 11.4383C24.8436 11.4772 27.0454 11.739 29.0539 12.2184C29.3199 12.2819 29.5932 12.1394 29.7078 11.8776C29.8137 11.6379 29.7607 11.3593 29.5822 11.1792L30.8247 9.10325C30.9687 8.86222 30.9355 8.54604 30.7434 8.34389C30.5501 8.14303 30.2508 8.10804 30.0218 8.25966L27.3323 10.0531L23.7846 8.22985L26.7536 5.80275C26.9802 5.61745 27.0442 5.28831 26.905 5.02266C26.7671 4.75961 26.4654 4.64039 26.1982 4.74406C26.1711 4.75572 23.4139 5.80146 20.2775 6.27573C20.1408 6.29776 19.9918 6.30424 19.8317 6.30424C17.242 6.30424 11.9198 4.00413 9.388 2.83658C11.4691 2.21977 15.5316 1.2129 19.881 1.2129C23.4497 1.2129 26.5122 1.88415 28.9862 3.2059C37.3438 7.67135 38.7317 13.0348 38.7427 13.0866C38.7514 13.119 38.776 13.1955 38.7908 13.2279L38.8216 13.3082C38.8844 13.465 39.0063 13.5881 39.159 13.6464C39.3104 13.7048 39.4804 13.6918 39.6257 13.6128C41.5615 12.5424 45.0908 11.2504 50.594 11.4526C58.1266 11.7299 65.2948 18.3853 67.9202 21.1079C64.4734 20.7839 58.5466 19.9585 56.8176 18.5836Z" fill="#010002"/>
<path d="M15.305 40.1852C16.9514 37.2358 18.7838 34.3824 20.8046 31.7661C21.1654 31.6184 22.0089 31.3527 22.7933 31.7104C23.5038 32.0344 24.0334 32.8235 24.3843 34.0235C22.9817 36.4441 21.5656 39.1239 20.2282 42.0227C18.8453 40.3912 16.8615 40.053 15.305 40.1852Z" fill="#8B714F"/>
<path d="M25.2007 32.6395C24.7365 31.6093 24.0974 30.8927 23.2822 30.5221C22.8512 30.3264 22.4226 30.2526 22.0212 30.2435C25.335 26.2705 29.1278 22.9713 33.4353 20.9576C31.7901 22.9246 28.5933 26.9961 25.2007 32.6395Z" fill="#8B714F"/>
<path d="M14.5218 41.6222C15.4934 41.3942 18.1607 41.0339 19.6384 43.3366C18.6385 45.5953 17.6952 47.9796 16.8455 50.4741C14.5083 48.6586 12.2868 48.8634 10.8128 49.3791C11.9173 46.8082 13.15 44.1932 14.5218 41.6222Z" fill="#8B714F"/>
<path d="M6.85741 59.8106C7.74774 57.1321 8.82277 54.1776 10.0776 51.1259C10.9359 50.5752 13.5551 49.2988 16.4133 51.7635C15.5636 54.4018 14.8284 57.1567 14.2509 60.0089C11.612 58.4474 8.58141 59.1627 6.85741 59.8106Z" fill="#8B714F"/>
<path d="M6.3279 61.4356C7.36107 60.9354 11.1317 59.3713 13.9935 61.3721C13.6992 62.9802 13.4579 64.6156 13.2756 66.2781C9.76851 64.9719 6.54586 65.647 4.89945 66.1848C5.29473 64.7801 5.7713 63.1785 6.3279 61.4356Z" fill="#8B714F"/>
<path d="M7.88442 72.7728C6.30081 72.7728 4.81571 72.4282 3.46483 71.753C3.61999 71.0701 3.9574 69.6473 4.4783 67.7126C5.37108 67.3394 9.12447 65.9917 13.1426 67.6141C13.0232 68.9566 12.937 70.3121 12.9013 71.6856C12.1723 72.0122 10.2303 72.7728 7.88442 72.7728Z" fill="#8B714F"/>
<path d="M56.8176 18.5836C54.2883 16.5724 52.3562 14.2542 52.3365 14.2322C52.1493 14.0054 51.8316 13.9549 51.589 14.1155C51.3489 14.2762 51.2528 14.5989 51.3649 14.8749L52.8487 18.5097L48.9057 18.2998L47.3763 15.3608C47.2457 15.1107 46.9687 14.9876 46.7064 15.0667C46.4453 15.1457 46.2705 15.4049 46.2865 15.6874L46.417 18.1339C45.7767 18.2272 44.5748 18.3555 43.134 18.2829C42.8631 18.2635 42.6267 18.4501 42.5479 18.7196C42.4715 18.9879 42.5799 19.2782 42.8102 19.4207C45.3321 20.9861 47.7827 23.2538 50.0903 26.1655C55.6946 33.2343 55.6761 44.9836 55.4618 49.2184C53.1197 45.9141 49.1409 39.812 48.9316 37.1607C48.6311 33.3743 49.035 29.8859 49.0375 29.8509C49.072 29.5528 48.8959 29.2703 48.6213 29.1874C48.5683 29.1706 48.5129 29.1628 48.4624 29.1628C48.2395 29.1628 48.0314 29.2976 47.9329 29.5165L46.0796 33.7151L43.1488 29.9001L44.3679 26.2653C44.459 25.9945 44.3605 25.6951 44.1315 25.5422C43.9012 25.3919 43.6007 25.4269 43.4111 25.6277L41.4888 27.6544C40.3953 26.6838 37.2921 23.6594 36.0102 19.5347C35.9154 19.2224 35.6014 19.0436 35.296 19.1382C34.9426 19.2458 34.5534 19.3429 34.0781 19.444C34.0005 19.4622 33.9279 19.4959 33.8651 19.5399C33.7924 19.5231 33.721 19.5218 33.6471 19.536C32.6952 19.7071 31.6842 19.7939 30.6424 19.7939C28.9307 19.7939 27.5171 19.5581 26.8078 19.4129L27.0984 16.5711C27.1279 16.2861 26.9666 16.0178 26.7092 15.9258C26.4519 15.8351 26.1699 15.9414 26.0258 16.185L24.1072 19.466H19.4463L21.3858 15.309C21.5126 15.0395 21.4326 14.7129 21.1986 14.5406C20.9659 14.3669 20.6457 14.4006 20.4462 14.6157C20.4228 14.6416 18.0979 17.1646 15.1117 19.2989C13.0195 20.793 6.0065 21.3722 2.09302 21.5303C5.05953 18.7209 13.5909 11.4358 22.2564 11.4358L22.5088 11.4383C24.8436 11.4772 27.0454 11.739 29.0539 12.2184C29.3199 12.2819 29.5932 12.1394 29.7078 11.8776C29.8137 11.6379 29.7607 11.3593 29.5822 11.1792L30.8247 9.10325C30.9687 8.86222 30.9355 8.54604 30.7434 8.34389C30.5501 8.14303 30.2508 8.10804 30.0218 8.25966L27.3323 10.0531L23.7846 8.22985L26.7536 5.80275C26.9802 5.61745 27.0442 5.28831 26.905 5.02266C26.7671 4.75961 26.4654 4.64039 26.1982 4.74406C26.1711 4.75572 23.4139 5.80146 20.2775 6.27573C20.1408 6.29776 19.9918 6.30424 19.8317 6.30424C17.242 6.30424 11.9198 4.00413 9.388 2.83658C11.4691 2.21977 15.5316 1.2129 19.881 1.2129C23.4497 1.2129 26.5122 1.88415 28.9862 3.2059C37.3438 7.67135 38.7317 13.0348 38.7427 13.0866C38.7514 13.119 38.776 13.1955 38.7908 13.2279L38.8216 13.3082C38.8844 13.465 39.0063 13.5881 39.159 13.6464C39.3104 13.7048 39.4804 13.6918 39.6257 13.6128C41.5615 12.5424 45.0908 11.2504 50.594 11.4526C58.1266 11.7299 65.2948 18.3853 67.9202 21.1079C64.4734 20.7839 58.5466 19.9585 56.8176 18.5836Z" fill="#6F9947"/>
<path d="M69.8535 21.4513C69.4792 21.0081 60.5772 10.6064 50.6408 10.2423C45.3925 10.0531 41.8422 11.1662 39.6922 12.2262C39.106 10.631 36.8636 6.05155 29.5157 2.12517C26.8755 0.715301 23.6368 0 19.8847 0C13.448 0 7.79084 2.07463 7.55194 2.16145C7.33028 2.24439 7.17635 2.46079 7.16527 2.7083C7.15296 2.9558 7.28595 3.18646 7.49776 3.29142C7.84871 3.46506 16.1251 7.53658 19.8342 7.53658C20.0546 7.53658 20.259 7.52233 20.445 7.49511C21.5902 7.32147 22.6739 7.08045 23.6048 6.83553L22.3364 7.8735C22.1776 8.00308 22.0951 8.21042 22.1148 8.41905C22.1357 8.62897 22.2576 8.81298 22.4387 8.90628L25.2956 10.3745C24.3966 10.2889 23.4731 10.2384 22.5298 10.2216L22.2576 10.219C11.0935 10.219 0.609154 21.2932 0.168304 21.7649C0.00206093 21.9411 -0.0459647 22.2054 0.0463923 22.4348C0.139981 22.6616 0.330852 22.8249 0.589451 22.8041C1.07833 22.7963 12.5799 22.5929 15.7631 20.3174C16.976 19.4505 18.0732 18.533 18.9648 17.7335L17.992 19.8159C17.9033 20.0051 17.9144 20.228 18.0203 20.4081C18.1274 20.5882 18.3134 20.6971 18.5141 20.6971H24.4373C24.6392 20.6971 24.8264 20.5869 24.9311 20.4055L25.6724 19.1395L25.5997 19.8367C25.5689 20.1386 25.7537 20.4198 26.0332 20.4949C26.1145 20.517 28.0318 21.0249 30.6461 21.0249C30.6646 21.0249 30.6831 21.0249 30.7028 21.0236C26.6846 23.3769 23.1566 26.772 20.0682 30.6919C20.0632 30.6945 20.0472 30.7022 20.0448 30.7035L20.0497 30.7139C15.4257 36.5892 11.7954 43.658 9.06044 50.2836C9.04566 50.2953 9.02719 50.3095 9.02473 50.3108L9.04073 50.3329C4.49184 61.363 2.39842 71.122 2.22355 71.9526C2.16814 72.2182 2.28882 72.4942 2.51787 72.6238C4.14335 73.5348 5.94739 74 7.88073 74C11.1465 74 13.629 72.6847 13.7349 72.629C13.9246 72.5266 14.0465 72.3232 14.0514 72.0977C14.5858 44.8424 32.9218 23.2939 35.1876 20.736C37.0224 25.6627 41.011 28.8362 41.1884 28.9749C41.4199 29.1563 41.7437 29.1317 41.9482 28.9153L42.4173 28.419L41.9482 29.8211C41.8792 30.0206 41.9174 30.2435 42.043 30.4094L45.7631 35.2519C45.8899 35.4165 46.0845 35.4994 46.2865 35.4748C46.4847 35.4476 46.6584 35.3167 46.7421 35.1236L47.6731 33.0179C47.641 34.2502 47.6509 35.7249 47.774 37.2643C48.0917 41.297 55.1712 50.8421 55.4717 51.2451C55.617 51.4382 55.8571 51.5237 56.0874 51.4563C56.314 51.3877 56.4778 51.1829 56.5073 50.938C56.58 50.2707 58.1993 34.4835 50.9856 25.3828C49.0954 22.9998 47.1091 21.0288 45.0575 19.4984C46.2963 19.4285 47.1017 19.2587 47.1448 19.2496C47.4268 19.1887 47.6263 18.9179 47.609 18.616L47.5918 18.3257L48.04 19.1861C48.1361 19.3727 48.3183 19.4933 48.5203 19.5036L53.7206 19.7809C53.7317 19.7809 53.7415 19.7809 53.7514 19.7809C53.7563 19.7822 53.7588 19.7822 53.7612 19.7809C54.0839 19.7809 54.3437 19.5075 54.3437 19.1693C54.3437 19.041 54.3068 18.9231 54.2427 18.8246L53.6516 17.372C54.3548 18.0601 55.1958 18.8246 56.1169 19.5593C58.8347 21.7195 68.9533 22.4387 69.3806 22.4672C69.6232 22.4724 69.8375 22.348 69.9409 22.1251C70.0444 21.9035 70.0099 21.6379 69.8535 21.4513ZM15.305 40.1852C16.9514 37.2358 18.7838 34.3824 20.8046 31.7661C21.1654 31.6184 22.0089 31.3527 22.7933 31.7104C23.5038 32.0344 24.0334 32.8235 24.3843 34.0235C22.9817 36.4441 21.5656 39.1239 20.2282 42.0227C18.8453 40.3912 16.8615 40.053 15.305 40.1852ZM14.5218 41.6222C15.4934 41.3942 18.1607 41.0339 19.6384 43.3366C18.6385 45.5953 17.6952 47.9796 16.8455 50.4741C14.5083 48.6586 12.2868 48.8634 10.8128 49.3791C11.9173 46.8082 13.15 44.1932 14.5218 41.6222ZM6.3279 61.4356C7.36107 60.9354 11.1317 59.3713 13.9935 61.3721C13.6992 62.9802 13.4579 64.6156 13.2756 66.2781C9.76851 64.9719 6.54586 65.647 4.89945 66.1848C5.29473 64.7801 5.7713 63.1785 6.3279 61.4356ZM6.85741 59.8106C7.74774 57.1321 8.82277 54.1776 10.0776 51.1259C10.9359 50.5752 13.5551 49.2988 16.4133 51.7635C15.5636 54.4018 14.8284 57.1567 14.2509 60.0089C11.612 58.4474 8.58141 59.1627 6.85741 59.8106ZM7.88442 72.7728C6.30081 72.7728 4.81571 72.4282 3.46483 71.753C3.61999 71.0701 3.9574 69.6473 4.4783 67.7126C5.37108 67.3394 9.12447 65.9917 13.1426 67.6141C13.0232 68.9566 12.937 70.3121 12.9013 71.6856C12.1723 72.0122 10.2303 72.7728 7.88442 72.7728ZM25.2007 32.6395C24.7365 31.6093 24.0974 30.8927 23.2822 30.5221C22.8512 30.3264 22.4226 30.2526 22.0212 30.2435C25.335 26.2705 29.1278 22.9713 33.4353 20.9576C31.7901 22.9246 28.5933 26.9961 25.2007 32.6395ZM56.8176 18.5836C54.2883 16.5724 52.3562 14.2542 52.3365 14.2322C52.1493 14.0054 51.8316 13.9549 51.589 14.1155C51.3489 14.2762 51.2528 14.5989 51.3649 14.8749L52.8487 18.5097L48.9057 18.2998L47.3763 15.3608C47.2457 15.1107 46.9687 14.9876 46.7064 15.0667C46.4453 15.1457 46.2705 15.4049 46.2865 15.6874L46.417 18.1339C45.7767 18.2272 44.5748 18.3555 43.134 18.2829C42.8631 18.2635 42.6267 18.4501 42.5479 18.7196C42.4715 18.9879 42.5799 19.2782 42.8102 19.4207C45.3321 20.9861 47.7827 23.2538 50.0903 26.1655C55.6946 33.2343 55.6761 44.9836 55.4618 49.2184C53.1197 45.9141 49.1409 39.812 48.9316 37.1607C48.6311 33.3743 49.035 29.8859 49.0375 29.8509C49.072 29.5528 48.8959 29.2703 48.6213 29.1874C48.5683 29.1706 48.5129 29.1628 48.4624 29.1628C48.2395 29.1628 48.0314 29.2976 47.9329 29.5165L46.0796 33.7151L43.1488 29.9001L44.3679 26.2653C44.459 25.9945 44.3605 25.6951 44.1315 25.5422C43.9012 25.3919 43.6007 25.4269 43.4111 25.6277L41.4888 27.6544C40.3953 26.6838 37.2921 23.6594 36.0102 19.5347C35.9154 19.2224 35.6014 19.0436 35.296 19.1382C34.9426 19.2458 34.5534 19.3429 34.0781 19.444C34.0005 19.4622 33.9279 19.4959 33.8651 19.5399C33.7924 19.5231 33.721 19.5218 33.6471 19.536C32.6952 19.7071 31.6842 19.7939 30.6424 19.7939C28.9307 19.7939 27.5171 19.5581 26.8078 19.4129L27.0984 16.5711C27.1279 16.2861 26.9666 16.0178 26.7092 15.9258C26.4519 15.8351 26.1699 15.9414 26.0258 16.185L24.1072 19.466H19.4463L21.3858 15.309C21.5126 15.0395 21.4326 14.7129 21.1986 14.5406C20.9659 14.3669 20.6457 14.4006 20.4462 14.6157C20.4228 14.6416 18.0979 17.1646 15.1117 19.2989C13.0195 20.793 6.0065 21.3722 2.09302 21.5303C5.05953 18.7209 13.5909 11.4358 22.2564 11.4358L22.5088 11.4383C24.8436 11.4772 27.0454 11.739 29.0539 12.2184C29.3199 12.2819 29.5932 12.1394 29.7078 11.8776C29.8137 11.6379 29.7607 11.3593 29.5822 11.1792L30.8247 9.10325C30.9687 8.86222 30.9355 8.54604 30.7434 8.34389C30.5501 8.14303 30.2508 8.10804 30.0218 8.25966L27.3323 10.0531L23.7846 8.22985L26.7536 5.80275C26.9802 5.61745 27.0442 5.28831 26.905 5.02266C26.7671 4.75961 26.4654 4.64039 26.1982 4.74406C26.1711 4.75572 23.4139 5.80146 20.2775 6.27573C20.1408 6.29776 19.9918 6.30424 19.8317 6.30424C17.242 6.30424 11.9198 4.00413 9.388 2.83658C11.4691 2.21977 15.5316 1.2129 19.881 1.2129C23.4497 1.2129 26.5122 1.88415 28.9862 3.2059C37.3438 7.67135 38.7317 13.0348 38.7427 13.0866C38.7514 13.119 38.776 13.1955 38.7908 13.2279L38.8216 13.3082C38.8844 13.465 39.0063 13.5881 39.159 13.6464C39.3104 13.7048 39.4804 13.6918 39.6257 13.6128C41.5615 12.5424 45.0908 11.2504 50.594 11.4526C58.1266 11.7299 65.2948 18.3853 67.9202 21.1079C64.4734 20.7839 58.5466 19.9585 56.8176 18.5836Z" stroke="black" stroke-width="2" mask="url(#path-1-inside-1_755_128)"/>
<path d="M15.305 40.1852C16.9514 37.2358 18.7838 34.3824 20.8046 31.7661C21.1654 31.6184 22.0089 31.3527 22.7933 31.7104C23.5038 32.0344 24.0334 32.8235 24.3843 34.0235C22.9817 36.4441 21.5656 39.1239 20.2282 42.0227C18.8453 40.3912 16.8615 40.053 15.305 40.1852Z" stroke="black" stroke-width="2" mask="url(#path-1-inside-1_755_128)"/>
<path d="M25.2007 32.6395C24.7365 31.6093 24.0974 30.8927 23.2822 30.5221C22.8512 30.3264 22.4226 30.2526 22.0212 30.2435C25.335 26.2705 29.1278 22.9713 33.4353 20.9576C31.7901 22.9246 28.5933 26.9961 25.2007 32.6395Z" stroke="black" stroke-width="2" mask="url(#path-1-inside-1_755_128)"/>
<path d="M14.5218 41.6222C15.4934 41.3942 18.1607 41.0339 19.6384 43.3366C18.6385 45.5953 17.6952 47.9796 16.8455 50.4741C14.5083 48.6586 12.2868 48.8634 10.8128 49.3791C11.9173 46.8082 13.15 44.1932 14.5218 41.6222Z" stroke="black" stroke-width="2" mask="url(#path-1-inside-1_755_128)"/>
<path d="M6.85741 59.8106C7.74774 57.1321 8.82277 54.1776 10.0776 51.1259C10.9359 50.5752 13.5551 49.2988 16.4133 51.7635C15.5636 54.4018 14.8284 57.1567 14.2509 60.0089C11.612 58.4474 8.58141 59.1627 6.85741 59.8106Z" stroke="black" stroke-width="2" mask="url(#path-1-inside-1_755_128)"/>
<path d="M6.3279 61.4356C7.36107 60.9354 11.1317 59.3713 13.9935 61.3721C13.6992 62.9802 13.4579 64.6156 13.2756 66.2781C9.76851 64.9719 6.54586 65.647 4.89945 66.1848C5.29473 64.7801 5.7713 63.1785 6.3279 61.4356Z" stroke="black" stroke-width="2" mask="url(#path-1-inside-1_755_128)"/>
<path d="M7.88442 72.7728C6.30081 72.7728 4.81571 72.4282 3.46483 71.753C3.61999 71.0701 3.9574 69.6473 4.4783 67.7126C5.37108 67.3394 9.12447 65.9917 13.1426 67.6141C13.0232 68.9566 12.937 70.3121 12.9013 71.6856C12.1723 72.0122 10.2303 72.7728 7.88442 72.7728Z" stroke="black" stroke-width="2" mask="url(#path-1-inside-1_755_128)"/>
<path d="M56.8176 18.5836C54.2883 16.5724 52.3562 14.2542 52.3365 14.2322C52.1493 14.0054 51.8316 13.9549 51.589 14.1155C51.3489 14.2762 51.2528 14.5989 51.3649 14.8749L52.8487 18.5097L48.9057 18.2998L47.3763 15.3608C47.2457 15.1107 46.9687 14.9876 46.7064 15.0667C46.4453 15.1457 46.2705 15.4049 46.2865 15.6874L46.417 18.1339C45.7767 18.2272 44.5748 18.3555 43.134 18.2829C42.8631 18.2635 42.6267 18.4501 42.5479 18.7196C42.4715 18.9879 42.5799 19.2782 42.8102 19.4207C45.3321 20.9861 47.7827 23.2538 50.0903 26.1655C55.6946 33.2343 55.6761 44.9836 55.4618 49.2184C53.1197 45.9141 49.1409 39.812 48.9316 37.1607C48.6311 33.3743 49.035 29.8859 49.0375 29.8509C49.072 29.5528 48.8959 29.2703 48.6213 29.1874C48.5683 29.1706 48.5129 29.1628 48.4624 29.1628C48.2395 29.1628 48.0314 29.2976 47.9329 29.5165L46.0796 33.7151L43.1488 29.9001L44.3679 26.2653C44.459 25.9945 44.3605 25.6951 44.1315 25.5422C43.9012 25.3919 43.6007 25.4269 43.4111 25.6277L41.4888 27.6544C40.3953 26.6838 37.2921 23.6594 36.0102 19.5347C35.9154 19.2224 35.6014 19.0436 35.296 19.1382C34.9426 19.2458 34.5534 19.3429 34.0781 19.444C34.0005 19.4622 33.9279 19.4959 33.8651 19.5399C33.7924 19.5231 33.721 19.5218 33.6471 19.536C32.6952 19.7071 31.6842 19.7939 30.6424 19.7939C28.9307 19.7939 27.5171 19.5581 26.8078 19.4129L27.0984 16.5711C27.1279 16.2861 26.9666 16.0178 26.7092 15.9258C26.4519 15.8351 26.1699 15.9414 26.0258 16.185L24.1072 19.466H19.4463L21.3858 15.309C21.5126 15.0395 21.4326 14.7129 21.1986 14.5406C20.9659 14.3669 20.6457 14.4006 20.4462 14.6157C20.4228 14.6416 18.0979 17.1646 15.1117 19.2989C13.0195 20.793 6.0065 21.3722 2.09302 21.5303C5.05953 18.7209 13.5909 11.4358 22.2564 11.4358L22.5088 11.4383C24.8436 11.4772 27.0454 11.739 29.0539 12.2184C29.3199 12.2819 29.5932 12.1394 29.7078 11.8776C29.8137 11.6379 29.7607 11.3593 29.5822 11.1792L30.8247 9.10325C30.9687 8.86222 30.9355 8.54604 30.7434 8.34389C30.5501 8.14303 30.2508 8.10804 30.0218 8.25966L27.3323 10.0531L23.7846 8.22985L26.7536 5.80275C26.9802 5.61745 27.0442 5.28831 26.905 5.02266C26.7671 4.75961 26.4654 4.64039 26.1982 4.74406C26.1711 4.75572 23.4139 5.80146 20.2775 6.27573C20.1408 6.29776 19.9918 6.30424 19.8317 6.30424C17.242 6.30424 11.9198 4.00413 9.388 2.83658C11.4691 2.21977 15.5316 1.2129 19.881 1.2129C23.4497 1.2129 26.5122 1.88415 28.9862 3.2059C37.3438 7.67135 38.7317 13.0348 38.7427 13.0866C38.7514 13.119 38.776 13.1955 38.7908 13.2279L38.8216 13.3082C38.8844 13.465 39.0063 13.5881 39.159 13.6464C39.3104 13.7048 39.4804 13.6918 39.6257 13.6128C41.5615 12.5424 45.0908 11.2504 50.594 11.4526C58.1266 11.7299 65.2948 18.3853 67.9202 21.1079C64.4734 20.7839 58.5466 19.9585 56.8176 18.5836Z" stroke="black" stroke-width="2" mask="url(#path-1-inside-1_755_128)"/>
</svg>
